<mxfile host="65bd71144e">
    <diagram id="N1TNiaG7QvdNexLvFVCD" name="Page-1">
        <mxGraphModel dx="1206" dy="1907" grid="1" gridSize="10" guides="1" tooltips="1" connect="1" arrows="1" fold="1" page="1" pageScale="1" pageWidth="850" pageHeight="1100" background="none" math="0" shadow="0">
            <root>
                <mxCell id="0"/>
                <mxCell id="1" parent="0"/>
                <mxCell id="7" style="edgeStyle=none;html=1;entryX=0;entryY=0.5;entryDx=0;entryDy=0;" edge="1" parent="1" source="2" target="3">
                    <mxGeometry relative="1" as="geometry"/>
                </mxCell>
                <mxCell id="2" value="inicio&lt;br&gt;" style="ellipse;whiteSpace=wrap;html=1;aspect=fixed;" vertex="1" parent="1">
                    <mxGeometry x="370" y="60" width="80" height="80" as="geometry"/>
                </mxCell>
                <mxCell id="8" style="edgeStyle=none;html=1;" edge="1" parent="1" source="3" target="9">
                    <mxGeometry relative="1" as="geometry">
                        <mxPoint x="640" y="190" as="targetPoint"/>
                    </mxGeometry>
                </mxCell>
                <mxCell id="3" value="usuario y pin" style="shape=parallelogram;perimeter=parallelogramPerimeter;whiteSpace=wrap;html=1;fixedSize=1;" vertex="1" parent="1">
                    <mxGeometry x="580" y="70" width="120" height="60" as="geometry"/>
                </mxCell>
                <mxCell id="10" style="edgeStyle=none;html=1;" edge="1" parent="1" source="9">
                    <mxGeometry relative="1" as="geometry">
                        <mxPoint x="570" y="240" as="targetPoint"/>
                    </mxGeometry>
                </mxCell>
                <mxCell id="19" style="edgeStyle=none;html=1;startArrow=none;" edge="1" parent="1" source="18">
                    <mxGeometry relative="1" as="geometry">
                        <mxPoint x="400" y="180" as="targetPoint"/>
                    </mxGeometry>
                </mxCell>
                <mxCell id="21" style="edgeStyle=none;html=1;entryX=0.454;entryY=0.05;entryDx=0;entryDy=0;entryPerimeter=0;" edge="1" parent="1" source="9" target="22">
                    <mxGeometry relative="1" as="geometry">
                        <mxPoint x="840" y="180" as="targetPoint"/>
                        <Array as="points">
                            <mxPoint x="760" y="180"/>
                        </Array>
                    </mxGeometry>
                </mxCell>
                <mxCell id="9" value="pertenece?" style="rhombus;whiteSpace=wrap;html=1;" vertex="1" parent="1">
                    <mxGeometry x="600" y="150" width="80" height="60" as="geometry"/>
                </mxCell>
                <mxCell id="13" style="edgeStyle=none;html=1;entryX=0.388;entryY=0.975;entryDx=0;entryDy=0;entryPerimeter=0;" edge="1" parent="1" source="12" target="2">
                    <mxGeometry relative="1" as="geometry">
                        <mxPoint x="280" y="265" as="targetPoint"/>
                        <Array as="points">
                            <mxPoint x="400" y="265"/>
                        </Array>
                    </mxGeometry>
                </mxCell>
                <mxCell id="12" value="rechazar" style="rounded=0;whiteSpace=wrap;html=1;" vertex="1" parent="1">
                    <mxGeometry x="520" y="240" width="100" height="50" as="geometry"/>
                </mxCell>
                <mxCell id="15" value="vacio&lt;span style=&quot;color: rgba(0, 0, 0, 0); font-family: monospace; font-size: 0px; text-align: start;&quot;&gt;%3CmxGraphModel%3E%3Croot%3E%3CmxCell%20id%3D%220%22%2F%3E%3CmxCell%20id%3D%221%22%20parent%3D%220%22%2F%3E%3CmxCell%20id%3D%222%22%20style%3D%22edgeStyle%3Dnone%3Bhtml%3D1%3B%22%20edge%3D%221%22%20parent%3D%221%22%3E%3CmxGeometry%20relative%3D%221%22%20as%3D%22geometry%22%3E%3CmxPoint%20x%3D%22290%22%20y%3D%22200%22%20as%3D%22targetPoint%22%2F%3E%3CmxPoint%20x%3D%22370%22%20y%3D%22100%22%20as%3D%22sourcePoint%22%2F%3E%3CArray%20as%3D%22points%22%3E%3CmxPoint%20x%3D%22290%22%20y%3D%22100%22%2F%3E%3C%2FArray%3E%3C%2FmxGeometry%3E%3C%2FmxCell%3E%3C%2Froot%3E%3C%2FmxGraphModel%3E&lt;/span&gt;" style="rounded=0;whiteSpace=wrap;html=1;" vertex="1" parent="1">
                    <mxGeometry x="425" y="240" width="70" height="30" as="geometry"/>
                </mxCell>
                <mxCell id="20" value="" style="edgeStyle=none;html=1;endArrow=none;" edge="1" parent="1" source="9" target="18">
                    <mxGeometry relative="1" as="geometry">
                        <mxPoint x="400" y="180" as="targetPoint"/>
                        <mxPoint x="600" y="180" as="sourcePoint"/>
                    </mxGeometry>
                </mxCell>
                <mxCell id="18" value="incorrecto" style="rounded=0;whiteSpace=wrap;html=1;" vertex="1" parent="1">
                    <mxGeometry x="460" y="165" width="70" height="30" as="geometry"/>
                </mxCell>
                <mxCell id="23" style="edgeStyle=none;html=1;" edge="1" parent="1" source="22" target="24">
                    <mxGeometry relative="1" as="geometry">
                        <mxPoint x="690" y="360" as="targetPoint"/>
                        <Array as="points">
                            <mxPoint x="765" y="360"/>
                        </Array>
                    </mxGeometry>
                </mxCell>
                <mxCell id="22" value="decision" style="shape=parallelogram;perimeter=parallelogramPerimeter;whiteSpace=wrap;html=1;fixedSize=1;" vertex="1" parent="1">
                    <mxGeometry x="700" y="240" width="130" height="40" as="geometry"/>
                </mxCell>
                <mxCell id="25" style="edgeStyle=none;html=1;" edge="1" parent="1" source="24" target="26">
                    <mxGeometry relative="1" as="geometry">
                        <mxPoint x="690" y="430" as="targetPoint"/>
                    </mxGeometry>
                </mxCell>
                <mxCell id="29" style="edgeStyle=none;html=1;" edge="1" parent="1" source="24">
                    <mxGeometry relative="1" as="geometry">
                        <mxPoint x="610" y="360" as="targetPoint"/>
                    </mxGeometry>
                </mxCell>
                <mxCell id="24" value="venta" style="rhombus;whiteSpace=wrap;html=1;" vertex="1" parent="1">
                    <mxGeometry x="650" y="320" width="80" height="80" as="geometry"/>
                </mxCell>
                <mxCell id="27" style="edgeStyle=none;html=1;" edge="1" parent="1" source="26" target="28">
                    <mxGeometry relative="1" as="geometry">
                        <mxPoint x="690" y="540" as="targetPoint"/>
                    </mxGeometry>
                </mxCell>
                <mxCell id="26" value="si" style="rhombus;whiteSpace=wrap;html=1;" vertex="1" parent="1">
                    <mxGeometry x="660" y="410" width="60" height="60" as="geometry"/>
                </mxCell>
                <mxCell id="28" value="codigo producto" style="shape=parallelogram;perimeter=parallelogramPerimeter;whiteSpace=wrap;html=1;fixedSize=1;" vertex="1" parent="1">
                    <mxGeometry x="630" y="590" width="120" height="30" as="geometry"/>
                </mxCell>
                <mxCell id="32" style="edgeStyle=none;html=1;" edge="1" parent="1" source="31" target="33">
                    <mxGeometry relative="1" as="geometry">
                        <mxPoint x="570" y="440" as="targetPoint"/>
                    </mxGeometry>
                </mxCell>
                <mxCell id="39" style="edgeStyle=none;html=1;entryX=0;entryY=0.5;entryDx=0;entryDy=0;startArrow=none;" edge="1" parent="1" source="41" target="2">
                    <mxGeometry relative="1" as="geometry">
                        <mxPoint x="340" y="60" as="targetPoint"/>
                        <Array as="points">
                            <mxPoint x="340" y="100"/>
                        </Array>
                    </mxGeometry>
                </mxCell>
                <mxCell id="31" value="nro ventas" style="rhombus;whiteSpace=wrap;html=1;" vertex="1" parent="1">
                    <mxGeometry x="530" y="320" width="80" height="80" as="geometry"/>
                </mxCell>
                <mxCell id="34" style="edgeStyle=none;html=1;" edge="1" parent="1" source="33" target="35">
                    <mxGeometry relative="1" as="geometry">
                        <mxPoint x="570" y="530" as="targetPoint"/>
                    </mxGeometry>
                </mxCell>
                <mxCell id="33" value="si" style="rhombus;whiteSpace=wrap;html=1;" vertex="1" parent="1">
                    <mxGeometry x="545" y="440" width="50" height="50" as="geometry"/>
                </mxCell>
                <mxCell id="38" style="edgeStyle=none;html=1;entryX=0.567;entryY=-0.025;entryDx=0;entryDy=0;entryPerimeter=0;" edge="1" parent="1" source="35" target="37">
                    <mxGeometry relative="1" as="geometry"/>
                </mxCell>
                <mxCell id="35" value="id vendedor" style="shape=parallelogram;perimeter=parallelogramPerimeter;whiteSpace=wrap;html=1;fixedSize=1;" vertex="1" parent="1">
                    <mxGeometry x="520" y="530" width="100" height="30" as="geometry"/>
                </mxCell>
                <mxCell id="37" value="&lt;b&gt;&lt;u&gt;numero de ventas&lt;/u&gt;&lt;/b&gt;" style="shape=parallelogram;perimeter=parallelogramPerimeter;whiteSpace=wrap;html=1;fixedSize=1;" vertex="1" parent="1">
                    <mxGeometry x="500" y="630" width="120" height="40" as="geometry"/>
                </mxCell>
                <mxCell id="42" value="" style="edgeStyle=none;html=1;entryX=0;entryY=0.5;entryDx=0;entryDy=0;endArrow=none;" edge="1" parent="1" source="31" target="41">
                    <mxGeometry relative="1" as="geometry">
                        <mxPoint x="370" y="100" as="targetPoint"/>
                        <mxPoint x="530" y="360" as="sourcePoint"/>
                        <Array as="points">
                            <mxPoint x="340" y="360"/>
                        </Array>
                    </mxGeometry>
                </mxCell>
                <mxCell id="41" value="salir" style="rhombus;whiteSpace=wrap;html=1;" vertex="1" parent="1">
                    <mxGeometry x="300" y="320" width="80" height="80" as="geometry"/>
                </mxCell>
                <mxCell id="44" style="edgeStyle=none;html=1;" edge="1" parent="1" source="43" target="45">
                    <mxGeometry relative="1" as="geometry">
                        <mxPoint x="460" y="440" as="targetPoint"/>
                    </mxGeometry>
                </mxCell>
                <mxCell id="43" value="bonus" style="rhombus;whiteSpace=wrap;html=1;" vertex="1" parent="1">
                    <mxGeometry x="420" y="320" width="80" height="80" as="geometry"/>
                </mxCell>
                <mxCell id="45" value="&lt;b&gt;&lt;u&gt;ventas de vendedores (multiple opcion)&lt;/u&gt;&lt;/b&gt;" style="shape=parallelogram;perimeter=parallelogramPerimeter;whiteSpace=wrap;html=1;fixedSize=1;" vertex="1" parent="1">
                    <mxGeometry x="390" y="430" width="130" height="40" as="geometry"/>
                </mxCell>
                <mxCell id="46" value="vendedor" style="shape=parallelogram;perimeter=parallelogramPerimeter;whiteSpace=wrap;html=1;fixedSize=1;" vertex="1" parent="1">
                    <mxGeometry x="630" y="510" width="110" height="40" as="geometry"/>
                </mxCell>
                <mxCell id="48" style="edgeStyle=none;html=1;" edge="1" parent="1" source="47" target="49">
                    <mxGeometry relative="1" as="geometry">
                        <mxPoint x="505" y="20" as="targetPoint"/>
                    </mxGeometry>
                </mxCell>
                <mxCell id="47" value="registrado?" style="rhombus;whiteSpace=wrap;html=1;" vertex="1" parent="1">
                    <mxGeometry x="465" y="60" width="80" height="80" as="geometry"/>
                </mxCell>
                <mxCell id="49" value="usuario y pin" style="shape=parallelogram;perimeter=parallelogramPerimeter;whiteSpace=wrap;html=1;fixedSize=1;" vertex="1" parent="1">
                    <mxGeometry x="445" y="-20" width="125" height="40" as="geometry"/>
                </mxCell>
            </root>
        </mxGraphModel>
    </diagram>
</mxfile>